<?xml version="1.0" encoding="utf-8"?>
<!-- Generator: Adobe Illustrator 25.2.0, SVG Export Plug-In . SVG Version: 6.00 Build 0)  -->
<svg version="1.1" id="Layer_1" xmlns="http://www.w3.org/2000/svg" xmlns:xlink="http://www.w3.org/1999/xlink" x="0px" y="0px"
	 viewBox="0 0 48 48" style="enable-background:new 0 0 48 48;" xml:space="preserve">
<style type="text/css">
	.st0{fill:#242938;}
	.st1{fill:#6699FF;}
	.st2{fill:#CCFFFF;}
	.st3{fill:#F2C913;}
	.st4{fill:#F4D646;}
</style>
<g transform="translate(0, 0)">
	<g>
		<path class="st0" d="M11.2,0h25.5C43,0,48,5,48,11.2v25.5C48,43,43,48,36.8,48H11.2C5,48,0,43,0,36.8V11.2C0,5,5,0,11.2,0z"/>
	</g>
</g>
<g>
	<g>
		<g>
			<g>
				<g>
					<path class="st1" d="M39.1,23.4l-9.2-9.2L26,19.2l4.2,4.2c0.4,0.4,0.4,1,0,1.4L29,26.1c0,0,0.8,1.2,0.9,1.3
						c0.2,0.4,0.2,1.3-0.3,1.7L20,36.4c0,2.5,0,7.5,0,7.5c0,0,19.1-19.1,19.1-19.1C39.4,24.4,39.4,23.8,39.1,23.4z"/>
				</g>
			</g>
			<g>
				<g>
					<path class="st2" d="M17.8,24.6c-0.4-0.4-0.4-1,0-1.4L19,22l-0.8-1.2c-0.4-0.6-0.3-1.4,0.3-1.8l9.6-7.3l0-7.5l0,0l0,0L8.9,23.2
						c-0.4,0.4-0.4,1,0,1.4l9.2,9.2l3.9-5L17.8,24.6z"/>
				</g>
			</g>
		</g>
		<g>
			<g>
				<g>
					<path class="st3" d="M28.9,27.5c0.1,0.2,0.2,0.8-0.1,1L15.4,38.9c-0.1,0.1-0.2,0.1-0.2,0.1c0,0,0-0.1,0.1-0.2l8.4-10.6
						c0.2-0.3,0.2-0.7,0-1L19,20.4C19,20.4,28.8,27.4,28.9,27.5z"/>
				</g>
			</g>
			<g>
				<g>
					<path class="st4" d="M28.9,27.5l-4.6-6.6c-0.2-0.3-0.2-0.7,0-1l8.4-10.6C32.8,9.1,32.9,9,32.8,9c0,0-0.1,0-0.2,0.1L19.1,19.5
						c-0.3,0.2-0.3,0.6-0.1,0.9L28.9,27.5z"/>
				</g>
			</g>
		</g>
	</g>
</g>
</svg>
