<?xml version="1.0" encoding="utf-8"?>
<!-- Generator: Adobe Illustrator 27.5.0, SVG Export Plug-In . SVG Version: 6.00 Build 0)  -->
<svg version="1.1" id="Layer_1" xmlns="http://www.w3.org/2000/svg" xmlns:xlink="http://www.w3.org/1999/xlink" x="0px" y="0px"
	 viewBox="0 0 48 48" style="enable-background:new 0 0 48 48;" xml:space="preserve">
<style type="text/css">
	.st0{fill:#398CCB;}
	.st1{fill-rule:evenodd;clip-rule:evenodd;fill:#FFFFFF;}
</style>
<path class="st0" d="M11.2,0h25.5C43,0,48,5,48,11.2v25.5C48,43,43,48,36.8,48H11.2C5,48,0,43,0,36.8V11.2C0,5,5,0,11.2,0z"/>
<path class="st1" d="M24.3,6.2l6.9,4v2.2l8.4,4.9v8.3l2.3,1.3v8l-6.9,4l-3.1-1.8l-7.5,4.3L17,37.1l-3,1.8l-6.9-4v-8l2.2-1.3v-8.4
	l8.2-4.7l0,0v-2.3L24.3,6.2z M31.3,14.5v3.7l-6.9,4l-6.9-4v-3.6l0,0L11,18.3v6.3l3-1.7l6.9,4v8l-2.1,1.2l5.6,3.3l5.7-3.3l-2.1-1.2
	v-8l6.9-4l2.9,1.7v-6.2L31.3,14.5z M29.9,33.9V29l4.2,2.4v4.9L29.9,33.9z M40.1,29l-4.2,2.4v4.9l4.2-2.5V29z M8.8,33.8V29l4.2,2.4
	v4.9L8.8,33.8z M19.1,29l-4.2,2.4v4.9l4.2-2.4V29z M30.8,27.4L35,25l4.2,2.4L35,29.8L30.8,27.4z M13.9,24.9l-4.2,2.5l4.2,2.4
	l4.2-2.4L13.9,24.9z M19.2,17.2v-4.9l4.2,2.4v4.9L19.2,17.2z M29.5,12.3l-4.2,2.4v4.9l4.2-2.4V12.3z M20.1,10.7l4.2-2.4l4.2,2.4
	l-4.2,2.4L20.1,10.7z"/>
</svg>
